HIERARCHY
ROOT Hips
{
	OFFSET 0.000000 0.000000 0.000000
	CHANNELS 6 Xposition Yposition Zposition Xrotation Yrotation Zrotation
	JOINT LeftUpLeg_virtual
	{
		OFFSET 0.000000 0.000000 0.000000
		CHANNELS 3 Xrotation Yrotation Zrotation
		JOINT LeftUpLeg
		{
			OFFSET 10.205400 -3.823500 0.155100
			CHANNELS 3 Xrotation Yrotation Zrotation
			JOINT LeftLeg
			{
				OFFSET 0.708757 -12.982077 0.567790
				CHANNELS 3 Xrotation Yrotation Zrotation
				JOINT LeftFoot
				{
					OFFSET -0.708756 -10.717838 -2.184338
					CHANNELS 3 Xrotation Yrotation Zrotation
					JOINT LeftToeBase
					{
						OFFSET 0.108149 -7.191104 7.560241
						CHANNELS 3 Xrotation Yrotation Zrotation
						JOINT LeftToe_End
						{
							OFFSET 0.070230 0.081724 4.490308
							CHANNELS 3 Xrotation Yrotation Zrotation
							End Site
							{
								OFFSET 0 0 0
							}
						}
					}
				}
			}
		}
	}
	JOINT RightUpLeg_virtual
	{
		OFFSET 0.000000 0.000000 0.000000
		CHANNELS 3 Xrotation Yrotation Zrotation
		JOINT RightUpLeg
		{
			OFFSET -10.205400 -3.823500 0.005500
			CHANNELS 3 Xrotation Yrotation Zrotation
			JOINT RightLeg
			{
				OFFSET -0.708756 -12.982134 0.610632
				CHANNELS 3 Xrotation Yrotation Zrotation
				JOINT RightFoot
				{
					OFFSET 0.708754 -10.717769 -1.945823
					CHANNELS 3 Xrotation Yrotation Zrotation
					JOINT RightToeBase
					{
						OFFSET -0.108140 -7.191069 7.372968
						CHANNELS 3 Xrotation Yrotation Zrotation
						JOINT RightToe_End
						{
							OFFSET -0.070227 0.081735 4.479403
							CHANNELS 3 Xrotation Yrotation Zrotation
							End Site
							{
								OFFSET 0 0 0
							}
						}
					}
				}
			}
		}
	}
	JOINT Spine_virtual
	{
		OFFSET 0.000000 0.000000 0.000000
		CHANNELS 3 Xrotation Yrotation Zrotation
		JOINT Spine
		{
			OFFSET 0.000000 6.876099 0.125700
			CHANNELS 3 Xrotation Yrotation Zrotation
			JOINT Spine1
			{
				OFFSET 0.000000 5.730043 0.104720
				CHANNELS 3 Xrotation Yrotation Zrotation
				JOINT Spine1_split
				{
					OFFSET 0.000000 5.730043 0.104720
					CHANNELS 3 Xrotation Yrotation Zrotation
					JOINT Spine2
					{
						OFFSET 0.000000 5.730043 0.104720
						CHANNELS 3 Xrotation Yrotation Zrotation
						JOINT Neck_virtual
						{
							OFFSET 0.000000 0.000000 0.000000
							CHANNELS 3 Xrotation Yrotation Zrotation
							JOINT Neck
							{
								OFFSET 0.000000 10.314075 0.188496
								CHANNELS 3 Xrotation Yrotation Zrotation
								JOINT Head
								{
									OFFSET 0.000000 7.643700 -2.377400
									CHANNELS 3 Xrotation Yrotation Zrotation
									JOINT HeadTop_End
									{
										OFFSET 0.000000 43.788605 -13.619600
										CHANNELS 3 Xrotation Yrotation Zrotation
										End Site
										{
											OFFSET 0 0 0
										}
									}
								}
							}
						}
						JOINT LeftShoulder_virtual
						{
							OFFSET 0.000000 0.000000 0.000000
							CHANNELS 3 Xrotation Yrotation Zrotation
							JOINT LeftShoulder
							{
								OFFSET 2.196100 4.412489 0.087492
								CHANNELS 3 Xrotation Yrotation Zrotation
								JOINT LeftShoulder_split
								{
									OFFSET 2.196100 4.412489 0.087492
									CHANNELS 3 Xrotation Yrotation Zrotation
									JOINT LeftArm
									{
										OFFSET 8.771219 -2.981674 -0.026999
										CHANNELS 3 Xrotation Yrotation Zrotation
										JOINT LeftForeArm
										{
											OFFSET 8.512804 0.000000 -0.000000
											CHANNELS 3 Xrotation Yrotation Zrotation
											JOINT LeftHand
											{
												OFFSET 18.484802 0.000000 -0.000000
												CHANNELS 3 Xrotation Yrotation Zrotation
												End Site
												{
													OFFSET 0 0 0
												}
											}
										}
									}
								}
							}
						}
						JOINT RightShoulder_virtual
						{
							OFFSET 0.000000 0.000000 0.000000
							CHANNELS 3 Xrotation Yrotation Zrotation
							JOINT RightShoulder
							{
								OFFSET -2.196100 4.412496 0.070690
								CHANNELS 3 Xrotation Yrotation Zrotation
								JOINT RightShoulder_split
								{
									OFFSET -2.196100 4.412496 0.070690
									CHANNELS 3 Xrotation Yrotation Zrotation
									JOINT RightArm
									{
										OFFSET -8.771282 -2.981682 -0.094208
										CHANNELS 3 Xrotation Yrotation Zrotation
										JOINT RightForeArm
										{
											OFFSET -8.494598 0.000000 0.000000
											CHANNELS 3 Xrotation Yrotation Zrotation
											JOINT RightHand
											{
												OFFSET -18.483803 0.000000 0.000001
												CHANNELS 3 Xrotation Yrotation Zrotation
												End Site
												{
													OFFSET 0 0 0
												}
											}
										}
									}
								}
							}
						}
					}
				}
			}
		}
	}
}
MOTION
Frames: 9
Frame Time: 0.03333333
0.744676 31.562971 -5.989002 0.000000 0.000000 0.000000 13.160934 -69.062741 15.359021 -19.305342 35.367232 29.352499 20.225356 -17.240521 0.123379 -7.366079 11.679454 -23.933674 2.074184 -2.938434 -4.757965 0.000000 0.000000 0.000000 11.226328 -67.058155 13.549252 -21.340786 3.284384 -28.529673 16.752214 14.088689 2.124226 -4.780557 -4.904305 43.124735 9.853573 4.706517 -19.303416 0.000000 0.000000 0.000000 4.419133 -61.907619 8.480715 5.579496 -2.712597 -3.719712 5.686927 -7.349968 -0.338827 0.095301 0.310377 -0.060251 0.000000 0.000000 0.000000 2.533853 -4.326146 -0.221105 -8.786133 23.779816 2.285128 -18.003627 55.800142 -2.241609 0.000000 0.000000 0.000000 9.331607 -7.957341 0.647405 9.004813 4.132756 14.543189 -3.454889 -6.985520 3.078832 -42.531424 6.108410 5.121470 14.395829 -7.178988 7.971911 0.000000 0.000000 0.000000 6.564622 -6.286602 1.164247 -4.384434 13.814665 -17.417517 12.353694 -0.895323 11.505168 -49.752034 25.832462 41.942901 -175.210417 51.084720 171.553342 0.000000 0.000000 0.000000 
0.709746 31.567669 -5.994513 0.000000 0.000000 0.000000 13.074999 -68.958867 15.297496 -19.255516 35.262354 29.281984 20.122559 -17.289972 0.113399 -7.292788 11.621589 -23.896305 2.086528 -2.934633 -4.704005 0.000000 0.000000 0.000000 11.154712 -66.951618 13.503688 -21.129030 3.250484 -28.547925 16.803840 14.030157 2.067377 -4.941742 -5.062106 43.194390 9.844061 4.793119 -19.261943 0.000000 0.000000 0.000000 4.391056 -61.822610 8.459457 5.544678 -2.771401 -3.775747 5.678914 -7.346950 -0.296343 0.094675 0.325708 -0.061988 0.000000 0.000000 0.000000 2.510064 -4.330679 -0.193584 -8.859493 23.878792 2.259670 -17.692893 55.785406 -2.492555 0.000000 0.000000 0.000000 9.355643 -7.963576 0.701255 8.953143 4.331832 14.555835 -3.468230 -6.963558 3.103105 -42.506449 5.992411 4.842808 14.428771 -7.211080 7.993381 0.000000 0.000000 0.000000 6.566903 -6.288045 1.208322 -4.344723 13.746048 -17.358957 12.351788 -0.860308 11.529598 -49.291375 25.309828 41.768424 -175.253037 50.887908 171.495573 0.000000 0.000000 0.000000 
0.675401 31.571682 -6.000055 0.000000 0.000000 0.000000 12.989613 -68.870382 15.237121 -19.207294 35.173350 29.224880 20.031818 -17.325115 0.102261 -7.233187 11.567131 -23.843169 2.099452 -2.931070 -4.648734 0.000000 0.000000 0.000000 11.075989 -66.851952 13.451542 -20.920024 3.221174 -28.567377 16.851742 13.975948 2.015651 -5.091916 -5.210307 43.271130 9.820399 4.878428 -19.229879 0.000000 0.000000 0.000000 4.341077 -61.745593 8.427728 5.516868 -2.826932 -3.838814 5.668348 -7.337887 -0.250155 0.093497 0.341196 -0.063510 0.000000 0.000000 0.000000 2.487911 -4.329232 -0.165653 -8.936434 23.963010 2.239928 -17.347135 55.786936 -2.779952 0.000000 0.000000 0.000000 9.381054 -7.965851 0.761294 8.896422 4.501816 14.559175 -3.467245 -6.925615 3.137969 -42.480942 5.901578 4.573289 14.459808 -7.236724 8.003665 0.000000 0.000000 0.000000 6.568807 -6.285573 1.253985 -4.303151 13.687065 -17.289774 12.359799 -0.814019 11.553898 -48.832765 24.773014 41.590203 -175.280276 50.687196 171.420823 0.000000 0.000000 0.000000 
0.641489 31.574184 -6.005928 0.000000 0.000000 0.000000 12.906507 -68.800851 15.181151 -19.159538 35.101162 29.181129 19.953750 -17.345812 0.087593 -7.192062 11.518272 -23.768756 2.119191 -2.928379 -4.589614 0.000000 0.000000 0.000000 10.988034 -66.759765 13.392951 -20.715740 3.196366 -28.588027 16.902712 13.927280 1.967904 -5.233053 -5.352271 43.358075 9.778784 4.963370 -19.208657 0.000000 0.000000 0.000000 4.270075 -61.676157 8.386330 5.499424 -2.877449 -3.907595 5.655246 -7.324756 -0.200917 0.092609 0.355759 -0.065145 0.000000 0.000000 0.000000 2.468068 -4.323697 -0.136956 -9.010666 24.033861 2.228206 -16.978949 55.805958 -3.096604 0.000000 0.000000 0.000000 9.405360 -7.965258 0.826676 8.837196 4.635341 14.553958 -3.442070 -6.879131 3.178649 -42.452610 5.848954 4.328807 14.481606 -7.267308 8.000318 0.000000 0.000000 0.000000 6.569379 -6.281409 1.300833 -4.259329 13.640648 -17.207591 12.375585 -0.758435 11.573032 -48.380211 24.227692 41.411276 -175.295917 50.488946 171.334708 0.000000 0.000000 0.000000 
0.608094 31.574585 -6.011974 0.000000 0.000000 0.000000 12.822867 -68.746441 15.128983 -19.117319 35.037525 29.152979 19.890266 -17.364858 0.067982 -7.163128 11.469825 -23.690030 2.144298 -2.926582 -4.527195 0.000000 0.000000 0.000000 10.892316 -66.672810 13.329609 -20.517239 3.179747 -28.608505 16.964267 13.881787 1.922403 -5.371989 -5.495518 43.447393 9.728769 5.046624 -19.195874 0.000000 0.000000 0.000000 4.180906 -61.612589 8.337410 5.494014 -2.922132 -3.980550 5.639499 -7.311209 -0.149086 0.092420 0.369042 -0.066544 0.000000 0.000000 0.000000 2.452000 -4.316905 -0.106543 -9.077195 24.092604 2.228767 -16.605846 55.847820 -3.432442 0.000000 0.000000 0.000000 9.426416 -7.963630 0.896331 8.778571 4.729398 14.544379 -3.392042 -6.833164 3.219468 -42.419467 5.843237 4.119924 14.490781 -7.311210 7.984793 0.000000 0.000000 0.000000 6.566920 -6.278282 1.348468 -4.214050 13.606565 -17.110788 12.397176 -0.696971 11.578879 -47.939342 23.682455 41.236625 -175.305575 50.302045 171.245232 0.000000 0.000000 0.000000 
0.575149 31.572781 -6.018213 0.000000 0.000000 0.000000 12.731108 -68.698234 15.073063 -19.079944 34.973956 29.136067 19.838382 -17.387891 0.045058 -7.140637 11.416007 -23.615867 2.161363 -2.925561 -4.460547 0.000000 0.000000 0.000000 10.788497 -66.585090 13.260586 -20.324078 3.175802 -28.627199 17.039691 13.836912 1.877789 -5.516073 -5.645400 43.529069 9.682626 5.126461 -19.187028 0.000000 0.000000 0.000000 4.077154 -61.551506 8.281657 5.500718 -2.961142 -4.055086 5.621238 -7.300523 -0.095673 0.092435 0.380126 -0.067106 0.000000 0.000000 0.000000 2.441788 -4.312476 -0.073920 -9.131787 24.141602 2.245028 -16.247975 55.915371 -3.773471 0.000000 0.000000 0.000000 9.441242 -7.963170 0.968130 8.723459 4.784038 14.538724 -3.307025 -6.787593 3.254595 -42.383226 5.885187 3.954183 14.487285 -7.366831 7.959234 0.000000 0.000000 0.000000 6.559735 -6.279549 1.396163 -4.168787 13.584014 -16.999986 12.425411 -0.627291 11.567281 -47.514156 23.145020 41.070751 -175.315233 50.138175 171.161781 0.000000 0.000000 0.000000 
0.542654 31.569073 -6.025021 0.000000 0.000000 0.000000 12.628011 -68.648333 15.008907 -19.048616 34.902898 29.125218 19.796344 -17.417370 0.020940 -7.112630 11.354213 -23.556808 2.166777 -2.924288 -4.397743 0.000000 0.000000 0.000000 10.678718 -66.493599 13.186093 -20.136487 3.187725 -28.644137 17.129978 13.790464 1.833094 -5.663157 -5.801786 43.596838 9.642502 5.202501 -19.176448 0.000000 0.000000 0.000000 3.963714 -61.493696 8.221570 5.519534 -2.994844 -4.127093 5.599918 -7.295883 -0.043748 0.092049 0.388398 -0.067141 0.000000 0.000000 0.000000 2.437487 -4.313690 -0.039840 -9.172055 24.182869 2.279427 -15.927817 56.011315 -4.100780 0.000000 0.000000 0.000000 9.448502 -7.966698 1.037526 8.675942 4.801096 14.545776 -3.189964 -6.744063 3.278580 -42.348993 5.970729 3.835309 14.470661 -7.414436 7.925267 0.000000 0.000000 0.000000 6.547064 -6.288686 1.441691 -4.125504 13.570503 -16.875975 12.460448 -0.555803 11.533080 -47.101377 22.628825 40.918994 -175.332527 50.010123 171.096649 0.000000 0.000000 0.000000 
0.511137 31.564074 -6.030914 0.000000 0.000000 0.000000 12.517934 -68.594306 14.938822 -19.024537 34.825953 29.118049 19.761962 -17.451738 -0.003696 -7.073288 11.284684 -23.511548 2.155223 -2.922143 -4.343443 0.000000 0.000000 0.000000 10.569141 -66.404506 13.111620 -19.958986 3.214563 -28.660266 17.232941 13.743134 1.787807 -5.804454 -5.959473 43.651729 9.603973 5.274971 -19.160450 0.000000 0.000000 0.000000 3.842277 -61.436527 8.159388 5.548506 -3.023865 -4.192489 5.575670 -7.299844 0.002334 0.090810 0.392850 -0.066812 0.000000 0.000000 0.000000 2.438977 -4.323390 -0.006574 -9.196850 24.219036 2.332396 -15.668509 56.135679 -4.393218 0.000000 0.000000 0.000000 9.447261 -7.976183 1.099069 8.639407 4.784695 14.572524 -3.038723 -6.702845 3.287501 -42.320412 6.096395 3.765093 14.437657 -7.435667 7.883583 0.000000 0.000000 0.000000 6.528174 -6.308235 1.481253 -4.086127 13.564546 -16.742296 12.506441 -0.474561 11.484426 -46.701398 22.147911 40.783876 -175.364069 49.927040 171.061022 0.000000 0.000000 0.000000 
0.481088 31.558430 -6.036406 0.000000 0.000000 0.000000 12.410298 -68.538045 14.870270 -19.003562 34.753321 29.107558 19.730142 -17.481854 -0.027737 -7.024647 11.211847 -23.463373 2.128783 -2.919387 -4.299334 0.000000 0.000000 0.000000 10.463491 -66.326478 13.042558 -19.796461 3.252907 -28.677219 17.340537 13.698230 1.742082 -5.933183 -6.111313 43.700346 9.564207 5.343645 -19.137860 0.000000 0.000000 0.000000 3.719026 -61.379365 8.100441 5.586882 -3.048184 -4.246106 5.548385 -7.313347 0.037903 0.089582 0.394047 -0.067338 0.000000 0.000000 0.000000 2.444598 -4.342924 0.022501 -9.202758 24.250368 2.399728 -15.488289 56.286124 -4.629061 0.000000 0.000000 0.000000 9.437122 -7.992320 1.147041 8.616931 4.742044 14.621068 -2.865307 -6.670609 3.279898 -42.300601 6.254897 3.742499 14.384819 -7.425109 7.836775 0.000000 0.000000 0.000000 6.503904 -6.338653 1.510499 -4.052775 13.563640 -16.603497 12.559716 -0.384681 11.410524 -46.312907 21.713677 40.662548 -175.415678 49.891865 171.065530 0.000000 0.000000 0.000000 
